<svg width="20" height="20" viewBox="0 0 20 20" fill="none" xmlns="http://www.w3.org/2000/svg">
<g clip-path="url(#clip0_1_2)">
<rect width="20" height="20" fill="white"/>
<path d="M8.90152 0.682875C9.35102 -0.227625 10.649 -0.227625 11.0985 0.682875L13.5245 5.59888L18.9495 6.38687C19.9545 6.53337 20.356 7.76788 19.6285 8.47688L15.7035 12.3034L16.63 17.7064C16.8015 18.7069 15.751 19.4704 14.8525 18.9979L10 16.4469L5.14752 18.9979C4.24902 19.4704 3.19852 18.7069 3.37002 17.7064L4.29702 12.3034L0.371522 8.47638C-0.355978 7.76788 0.0455219 6.53338 1.05002 6.38738L6.47502 5.59888L8.90152 0.682875Z" fill="url(#paint0_linear_1_2)"/>
</g>
<defs>
<linearGradient id="paint0_linear_1_2" x1="19.9975" y1="19.5679" x2="-0.560479" y2="0.166876" gradientUnits="userSpaceOnUse">
<stop stop-color="#FF6F47"/>
<stop offset="1" stop-color="#FFCD0F"/>
</linearGradient>
<clipPath id="clip0_1_2">
<rect width="20" height="20" fill="white"/>
</clipPath>
</defs>
</svg>
