<svg width="120" height="20" viewBox="0 0 120 20" fill="none" xmlns="http://www.w3.org/2000/svg">
<rect width="120" height="20" fill="white"/>
<path d="M8.90152 0.682875C9.35102 -0.227625 10.649 -0.227625 11.0985 0.682875L13.5245 5.59888L18.9495 6.38687C19.9545 6.53337 20.356 7.76788 19.6285 8.47688L15.7035 12.3034L16.63 17.7064C16.8015 18.7069 15.751 19.4704 14.8525 18.9979L10 16.4469L5.14752 18.9979C4.24902 19.4704 3.19852 18.7069 3.37002 17.7064L4.29702 12.3034L0.371522 8.47638C-0.355978 7.76788 0.0455219 6.53338 1.05002 6.38738L6.47502 5.59888L8.90152 0.682875Z" fill="url(#paint0_linear_1_33)"/>
<path d="M33.9015 0.682875C34.351 -0.227625 35.649 -0.227625 36.0985 0.682875L38.5245 5.59888L43.9495 6.38687C44.9545 6.53337 45.356 7.76788 44.6285 8.47688L40.7035 12.3034L41.63 17.7064C41.8015 18.7069 40.751 19.4704 39.8525 18.9979L35 16.4469L30.1475 18.9979C29.249 19.4704 28.1985 18.7069 28.37 17.7064L29.297 12.3034L25.3715 8.47638C24.644 7.76788 25.0455 6.53338 26.05 6.38738L31.475 5.59888L33.9015 0.682875Z" fill="url(#paint1_linear_1_33)"/>
<path d="M58.9015 0.682875C59.351 -0.227625 60.649 -0.227625 61.0985 0.682875L63.5245 5.59888L68.9495 6.38687C69.9545 6.53337 70.356 7.76788 69.6285 8.47688L65.7035 12.3034L66.63 17.7064C66.8015 18.7069 65.751 19.4704 64.8525 18.9979L60 16.4469L55.1475 18.9979C54.249 19.4704 53.1985 18.7069 53.37 17.7064L54.297 12.3034L50.3715 8.47638C49.644 7.76788 50.0455 6.53338 51.05 6.38738L56.475 5.59888L58.9015 0.682875Z" fill="url(#paint2_linear_1_33)"/>
<path d="M83.9015 0.682875C84.351 -0.227625 85.649 -0.227625 86.0985 0.682875L88.5245 5.59888L93.9495 6.38687C94.9545 6.53337 95.356 7.76788 94.6285 8.47688L90.7035 12.3034L91.63 17.7064C91.8015 18.7069 90.751 19.4704 89.8525 18.9979L85 16.4469L80.1475 18.9979C79.249 19.4704 78.1985 18.7069 78.37 17.7064L79.297 12.3034L75.3715 8.47638C74.644 7.76788 75.0455 6.53338 76.05 6.38738L81.475 5.59888L83.9015 0.682875Z" fill="url(#paint3_linear_1_33)"/>
<path d="M108.902 0.682875C109.351 -0.227625 110.649 -0.227625 111.099 0.682875L113.525 5.59888L118.95 6.38687C119.955 6.53337 120.356 7.76788 119.629 8.47688L115.704 12.3034L116.63 17.7064C116.802 18.7069 115.751 19.4704 114.853 18.9979L110 16.4469L105.148 18.9979C104.249 19.4704 103.199 18.7069 103.37 17.7064L104.297 12.3034L100.372 8.47638C99.644 7.76788 100.046 6.53338 101.05 6.38738L106.475 5.59888L108.902 0.682875Z" fill="url(#paint4_linear_1_33)"/>
<defs>
<linearGradient id="paint0_linear_1_33" x1="19.9975" y1="19.5679" x2="-0.560479" y2="0.166876" gradientUnits="userSpaceOnUse">
<stop stop-color="#FF6F47"/>
<stop offset="1" stop-color="#FFCD0F"/>
</linearGradient>
<linearGradient id="paint1_linear_1_33" x1="44.9975" y1="19.5679" x2="24.4395" y2="0.166876" gradientUnits="userSpaceOnUse">
<stop stop-color="#FF6F47"/>
<stop offset="1" stop-color="#FFCD0F"/>
</linearGradient>
<linearGradient id="paint2_linear_1_33" x1="69.9975" y1="19.5679" x2="49.4395" y2="0.166876" gradientUnits="userSpaceOnUse">
<stop stop-color="#FF6F47"/>
<stop offset="1" stop-color="#FFCD0F"/>
</linearGradient>
<linearGradient id="paint3_linear_1_33" x1="94.9975" y1="19.5679" x2="74.4395" y2="0.166876" gradientUnits="userSpaceOnUse">
<stop stop-color="#FF6F47"/>
<stop offset="1" stop-color="#FFCD0F"/>
</linearGradient>
<linearGradient id="paint4_linear_1_33" x1="119.998" y1="19.5679" x2="99.4395" y2="0.166876" gradientUnits="userSpaceOnUse">
<stop stop-color="#FF6F47"/>
<stop offset="1" stop-color="#FFCD0F"/>
</linearGradient>
</defs>
</svg>
