<svg width="45" height="20" viewBox="0 0 45 20" fill="none" xmlns="http://www.w3.org/2000/svg">
<rect width="45" height="20" fill="white"/>
<path d="M8.90152 0.682875C9.35102 -0.227625 10.649 -0.227625 11.0985 0.682875L13.5245 5.59888L18.9495 6.38687C19.9545 6.53337 20.356 7.76788 19.6285 8.47688L15.7035 12.3034L16.63 17.7064C16.8015 18.7069 15.751 19.4704 14.8525 18.9979L10 16.4469L5.14752 18.9979C4.24902 19.4704 3.19852 18.7069 3.37002 17.7064L4.29702 12.3034L0.371522 8.47638C-0.355978 7.76788 0.0455219 6.53338 1.05002 6.38738L6.47502 5.59888L8.90152 0.682875Z" fill="url(#paint0_linear_1_6)"/>
<path d="M33.9015 0.682875C34.351 -0.227625 35.649 -0.227625 36.0985 0.682875L38.5245 5.59888L43.9495 6.38687C44.9545 6.53337 45.356 7.76788 44.6285 8.47688L40.7035 12.3034L41.63 17.7064C41.8015 18.7069 40.751 19.4704 39.8525 18.9979L35 16.4469L30.1475 18.9979C29.249 19.4704 28.1985 18.7069 28.37 17.7064L29.297 12.3034L25.3715 8.47638C24.644 7.76788 25.0455 6.53338 26.05 6.38738L31.475 5.59888L33.9015 0.682875Z" fill="url(#paint1_linear_1_6)"/>
<defs>
<linearGradient id="paint0_linear_1_6" x1="19.9975" y1="19.5679" x2="-0.560479" y2="0.166876" gradientUnits="userSpaceOnUse">
<stop stop-color="#FF6F47"/>
<stop offset="1" stop-color="#FFCD0F"/>
</linearGradient>
<linearGradient id="paint1_linear_1_6" x1="44.9975" y1="19.5679" x2="24.4395" y2="0.166876" gradientUnits="userSpaceOnUse">
<stop stop-color="#FF6F47"/>
<stop offset="1" stop-color="#FFCD0F"/>
</linearGradient>
</defs>
</svg>
