<svg width="271" height="75" viewBox="0 0 271 75" fill="none" xmlns="http://www.w3.org/2000/svg">
<rect width="271" height="75" fill="white"/>
<path d="M28.9015 21.6829C29.351 20.7724 30.649 20.7724 31.0985 21.6829L33.5245 26.5989L38.9495 27.3869C39.9545 27.5334 40.356 28.7679 39.6285 29.4769L35.7035 33.3034L36.63 38.7064C36.8015 39.7069 35.751 40.4704 34.8525 39.9979L30 37.4469L25.1475 39.9979C24.249 40.4704 23.1985 39.7069 23.37 38.7064L24.297 33.3034L20.3715 29.4764C19.644 28.7679 20.0455 27.5334 21.05 27.3874L26.475 26.5989L28.9015 21.6829Z" fill="url(#paint0_linear_1_22)"/>
<path d="M53.9015 21.6829C54.351 20.7724 55.649 20.7724 56.0985 21.6829L58.5245 26.5989L63.9495 27.3869C64.9545 27.5334 65.356 28.7679 64.6285 29.4769L60.7035 33.3034L61.63 38.7064C61.8015 39.7069 60.751 40.4704 59.8525 39.9979L55 37.4469L50.1475 39.9979C49.249 40.4704 48.1985 39.7069 48.37 38.7064L49.297 33.3034L45.3715 29.4764C44.644 28.7679 45.0455 27.5334 46.05 27.3874L51.475 26.5989L53.9015 21.6829Z" fill="url(#paint1_linear_1_22)"/>
<path d="M78.9015 21.6829C79.351 20.7724 80.649 20.7724 81.0985 21.6829L83.5245 26.5989L88.9495 27.3869C89.9545 27.5334 90.356 28.7679 89.6285 29.4769L85.7035 33.3034L86.63 38.7064C86.8015 39.7069 85.751 40.4704 84.8525 39.9979L80 37.4469L75.1475 39.9979C74.249 40.4704 73.1985 39.7069 73.37 38.7064L74.297 33.3034L70.3715 29.4764C69.644 28.7679 70.0455 27.5334 71.05 27.3874L76.475 26.5989L78.9015 21.6829Z" fill="url(#paint2_linear_1_22)"/>
<path d="M103.902 21.6829C104.351 20.7724 105.649 20.7724 106.099 21.6829L108.525 26.5989L113.95 27.3869C114.955 27.5334 115.356 28.7679 114.629 29.4769L110.704 33.3034L111.63 38.7064C111.802 39.7069 110.751 40.4704 109.853 39.9979L105 37.4469L100.148 39.9979C99.249 40.4704 98.1985 39.7069 98.37 38.7064L99.297 33.3034L95.3715 29.4764C94.644 28.7679 95.0455 27.5334 96.05 27.3874L101.475 26.5989L103.902 21.6829Z" fill="url(#paint3_linear_1_22)"/>
<defs>
<linearGradient id="paint0_linear_1_22" x1="39.9975" y1="40.5679" x2="19.4395" y2="21.1669" gradientUnits="userSpaceOnUse">
<stop stop-color="#FF6F47"/>
<stop offset="1" stop-color="#FFCD0F"/>
</linearGradient>
<linearGradient id="paint1_linear_1_22" x1="64.9975" y1="40.5679" x2="44.4395" y2="21.1669" gradientUnits="userSpaceOnUse">
<stop stop-color="#FF6F47"/>
<stop offset="1" stop-color="#FFCD0F"/>
</linearGradient>
<linearGradient id="paint2_linear_1_22" x1="89.9975" y1="40.5679" x2="69.4395" y2="21.1669" gradientUnits="userSpaceOnUse">
<stop stop-color="#FF6F47"/>
<stop offset="1" stop-color="#FFCD0F"/>
</linearGradient>
<linearGradient id="paint3_linear_1_22" x1="114.998" y1="40.5679" x2="94.4395" y2="21.1669" gradientUnits="userSpaceOnUse">
<stop stop-color="#FF6F47"/>
<stop offset="1" stop-color="#FFCD0F"/>
</linearGradient>
</defs>
</svg>
